<?xml version="1.0" encoding="UTF-8" standalone="no"?>
<!DOCTYPE svg PUBLIC "-//W3C//DTD SVG 1.1//EN"
 "http://www.w3.org/Graphics/SVG/1.1/DTD/svg11.dtd">
<!-- Generated by graphviz version 2.38.0 (20140413.2041)
 -->
<!-- Title: D Pages: 1 -->
<svg width="707pt" height="206pt"
 viewBox="0.00 0.00 707.00 206.28" xmlns="http://www.w3.org/2000/svg" xmlns:xlink="http://www.w3.org/1999/xlink">
<g id="graph0" class="graph" transform="scale(1 1) rotate(0) translate(4 202.276)">
<title>D</title>
<polygon fill="#141d26" stroke="none" points="-4,4 -4,-202.276 703,-202.276 703,4 -4,4"/>
<!-- 0 -->
<g id="node1" class="node"><title>0</title>
<ellipse fill="#48d1cc" stroke="#48d1cc" cx="677" cy="-89.2765" rx="18" ry="18"/>
<ellipse fill="none" stroke="#48d1cc" cx="677" cy="-89.2765" rx="22" ry="22"/>
</g>
<!-- 1 -->
<g id="node3" class="node"><title>1</title>
<ellipse fill="#48d1cc" stroke="#48d1cc" cx="595" cy="-89.2765" rx="18" ry="18"/>
</g>
<!-- 0&#45;&gt;1 -->
<g id="edge12" class="edge"><title>0&#45;&gt;1</title>
<path fill="none" stroke="#f5f5f5" stroke-width="1.5" d="M644.654,-89.2765C633.913,-89.2765 622.297,-89.2765 613.11,-89.2765"/>
<polygon fill="#f5f5f5" stroke="#f5f5f5" stroke-width="1.5" points="644.981,-92.7766 654.981,-89.2765 644.981,-85.7766 644.981,-92.7766"/>
<text text-anchor="start" x="631" y="-92.6765" font-family="Century Gothic" font-size="12.00" fill="Crimson">ε</text>
</g>
<!-- final -->
<g id="node2" class="node"><title>final</title>
<ellipse fill="#48d1cc" stroke="#48d1cc" cx="18" cy="-89.2765" rx="18" ry="18"/>
<text text-anchor="middle" x="18" y="-86.1765" font-family="Century Gothic" font-size="12.00">S0</text>
</g>
<!-- 2 -->
<g id="node4" class="node"><title>2</title>
<ellipse fill="#48d1cc" stroke="#48d1cc" cx="425" cy="-180.276" rx="18" ry="18"/>
</g>
<!-- 1&#45;&gt;2 -->
<g id="edge1" class="edge"><title>1&#45;&gt;2</title>
<path fill="none" stroke="#f5f5f5" stroke-width="1.5" d="M578.24,-112.526C572.777,-119.28 566.198,-126.197 559,-131.276 522.006,-157.382 469.483,-171.274 442.865,-177.024"/>
<polygon fill="#f5f5f5" stroke="#f5f5f5" stroke-width="1.5" points="581.289,-114.296 584.525,-104.208 575.704,-110.076 581.289,-114.296"/>
<text text-anchor="start" x="517" y="-157.676" font-family="Century Gothic" font-size="12.00" fill="Crimson">{letra} </text>
</g>
<!-- 3 -->
<g id="node5" class="node"><title>3</title>
<ellipse fill="#48d1cc" stroke="#48d1cc" cx="425" cy="-133.276" rx="18" ry="18"/>
</g>
<!-- 1&#45;&gt;3 -->
<g id="edge2" class="edge"><title>1&#45;&gt;3</title>
<path fill="none" stroke="#f5f5f5" stroke-width="1.5" d="M568.746,-99.9262C565.494,-101.135 562.187,-102.286 559,-103.276 518.085,-115.986 468.541,-125.72 443.022,-130.333"/>
<polygon fill="#f5f5f5" stroke="#f5f5f5" stroke-width="1.5" points="570.132,-103.142 578.162,-96.2302 567.575,-96.626 570.132,-103.142"/>
<text text-anchor="start" x="515" y="-117.676" font-family="Century Gothic" font-size="12.00" fill="Crimson">{digito}</text>
</g>
<!-- 4 -->
<g id="node6" class="node"><title>4</title>
<ellipse fill="#48d1cc" stroke="#48d1cc" cx="293" cy="-89.2765" rx="18" ry="18"/>
</g>
<!-- 1&#45;&gt;4 -->
<g id="edge9" class="edge"><title>1&#45;&gt;4</title>
<path fill="none" stroke="#f5f5f5" stroke-width="1.5" d="M566.557,-89.2765C505.688,-89.2765 360.825,-89.2765 311.1,-89.2765"/>
<polygon fill="#f5f5f5" stroke="#f5f5f5" stroke-width="1.5" points="566.574,-92.7766 576.574,-89.2765 566.574,-85.7766 566.574,-92.7766"/>
<text text-anchor="start" x="422" y="-92.6765" font-family="Century Gothic" font-size="12.00" fill="Crimson">ε</text>
</g>
<!-- 5 -->
<g id="node7" class="node"><title>5</title>
<ellipse fill="#48d1cc" stroke="#48d1cc" cx="479" cy="-43.2765" rx="18" ry="18"/>
</g>
<!-- 1&#45;&gt;5 -->
<g id="edge5" class="edge"><title>1&#45;&gt;5</title>
<path fill="none" stroke="#f5f5f5" stroke-width="1.5" d="M573.223,-70.9981C568.752,-67.7267 563.893,-64.6192 559,-62.2765 538.897,-52.6512 513.516,-47.6697 497.03,-45.2662"/>
<polygon fill="#f5f5f5" stroke="#f5f5f5" stroke-width="1.5" points="571.232,-73.8852 581.25,-77.3329 575.569,-68.3903 571.232,-73.8852"/>
<text text-anchor="start" x="534" y="-65.6765" font-family="Century Gothic" font-size="12.00" fill="Crimson">ε</text>
</g>
<!-- 2&#45;&gt;4 -->
<g id="edge3" class="edge"><title>2&#45;&gt;4</title>
<path fill="none" stroke="#f5f5f5" stroke-width="1.5" d="M399.53,-167.564C385.527,-159.944 367.848,-149.728 353,-139.276 336.092,-127.375 318.176,-111.698 306.583,-101.096"/>
<polygon fill="#f5f5f5" stroke="#f5f5f5" stroke-width="1.5" points="398.089,-170.762 408.557,-172.395 401.392,-164.59 398.089,-170.762"/>
<text text-anchor="start" x="368" y="-164.676" font-family="Century Gothic" font-size="12.00" fill="Crimson">ε</text>
</g>
<!-- 3&#45;&gt;4 -->
<g id="edge4" class="edge"><title>3&#45;&gt;4</title>
<path fill="none" stroke="#f5f5f5" stroke-width="1.5" d="M397.576,-125.51C378.417,-119.739 351.95,-111.477 329,-103.276 322.714,-101.03 315.881,-98.3514 309.934,-95.9414"/>
<polygon fill="#f5f5f5" stroke="#f5f5f5" stroke-width="1.5" points="396.816,-128.936 407.4,-128.444 398.819,-122.229 396.816,-128.936"/>
<text text-anchor="start" x="368" y="-125.676" font-family="Century Gothic" font-size="12.00" fill="Crimson">ε</text>
</g>
<!-- 4&#45;&gt;1 -->
<g id="edge10" class="edge"><title>4&#45;&gt;1</title>
<path fill="none" stroke="#f5f5f5" stroke-width="1.5" d="M306.489,-64.2783C316.495,-47.2895 332.28,-26.1713 353,-16.2765 410.752,11.3036 434.434,-2.8038 497,-16.2765 526.558,-22.6413 535.244,-25.5726 559,-44.2765 569.42,-52.4808 578.521,-64.4256 584.829,-73.9472"/>
<polygon fill="#f5f5f5" stroke="#f5f5f5" stroke-width="1.5" points="303.332,-62.7536 301.531,-73.1941 309.45,-66.156 303.332,-62.7536"/>
<text text-anchor="start" x="422" y="-7.67647" font-family="Century Gothic" font-size="12.00" fill="Crimson">ε</text>
</g>
<!-- 7 -->
<g id="node9" class="node"><title>7</title>
<ellipse fill="#48d1cc" stroke="#48d1cc" cx="215" cy="-89.2765" rx="18" ry="18"/>
</g>
<!-- 4&#45;&gt;7 -->
<g id="edge8" class="edge"><title>4&#45;&gt;7</title>
<path fill="none" stroke="#f5f5f5" stroke-width="1.5" d="M264.428,-89.2765C253.982,-89.2765 242.397,-89.2765 233.177,-89.2765"/>
<polygon fill="#f5f5f5" stroke="#f5f5f5" stroke-width="1.5" points="264.754,-92.7766 274.754,-89.2765 264.754,-85.7766 264.754,-92.7766"/>
<text text-anchor="start" x="251" y="-92.6765" font-family="Century Gothic" font-size="12.00" fill="Crimson">ε</text>
</g>
<!-- 6 -->
<g id="node8" class="node"><title>6</title>
<ellipse fill="#48d1cc" stroke="#48d1cc" cx="371" cy="-43.2765" rx="18" ry="18"/>
</g>
<!-- 5&#45;&gt;6 -->
<g id="edge6" class="edge"><title>5&#45;&gt;6</title>
<path fill="none" stroke="#f5f5f5" stroke-width="1.5" d="M450.931,-43.2765C431.554,-43.2765 406.042,-43.2765 389.341,-43.2765"/>
<polygon fill="#f5f5f5" stroke="#f5f5f5" stroke-width="1.5" points="450.969,-46.7766 460.969,-43.2765 450.969,-39.7766 450.969,-46.7766"/>
<text text-anchor="start" x="418" y="-46.6765" font-family="Century Gothic" font-size="12.00" fill="Crimson">&quot;_&quot;</text>
</g>
<!-- 6&#45;&gt;4 -->
<g id="edge7" class="edge"><title>6&#45;&gt;4</title>
<path fill="none" stroke="#f5f5f5" stroke-width="1.5" d="M344.768,-53.8899C339.445,-56.4252 333.946,-59.2744 329,-62.2765 321.39,-66.8955 313.49,-72.8722 307.126,-78.0278"/>
<polygon fill="#f5f5f5" stroke="#f5f5f5" stroke-width="1.5" points="346.341,-57.0195 354.001,-49.7002 343.449,-50.6451 346.341,-57.0195"/>
<text text-anchor="start" x="329" y="-65.6765" font-family="Century Gothic" font-size="12.00" fill="Crimson">ε</text>
</g>
<!-- 8 -->
<g id="node10" class="node"><title>8</title>
<ellipse fill="#48d1cc" stroke="#48d1cc" cx="96" cy="-89.2765" rx="18" ry="18"/>
</g>
<!-- 7&#45;&gt;8 -->
<g id="edge11" class="edge"><title>7&#45;&gt;8</title>
<path fill="none" stroke="#f5f5f5" stroke-width="1.5" d="M186.747,-89.2765C164.279,-89.2765 133.105,-89.2765 114.033,-89.2765"/>
<polygon fill="#f5f5f5" stroke="#f5f5f5" stroke-width="1.5" points="186.987,-92.7766 196.987,-89.2765 186.987,-85.7766 186.987,-92.7766"/>
<text text-anchor="start" x="132" y="-92.6765" font-family="Century Gothic" font-size="12.00" fill="Crimson">{digito} </text>
</g>
<!-- 8&#45;&gt;final -->
<g id="edge13" class="edge"><title>8&#45;&gt;final</title>
<path fill="none" stroke="#f5f5f5" stroke-width="1.5" d="M67.4282,-89.2765C56.9823,-89.2765 45.3969,-89.2765 36.1773,-89.2765"/>
<polygon fill="#f5f5f5" stroke="#f5f5f5" stroke-width="1.5" points="67.7545,-92.7766 77.7544,-89.2765 67.7544,-85.7766 67.7545,-92.7766"/>
<text text-anchor="start" x="54" y="-92.6765" font-family="Century Gothic" font-size="12.00" fill="Crimson">ε</text>
</g>
</g>
</svg>
