<?xml version="1.0" encoding="UTF-8" standalone="no"?>
<!DOCTYPE svg PUBLIC "-//W3C//DTD SVG 1.1//EN"
 "http://www.w3.org/Graphics/SVG/1.1/DTD/svg11.dtd">
<!-- Generated by graphviz version 2.38.0 (20140413.2041)
 -->
<!-- Title: D Pages: 1 -->
<svg width="604pt" height="52pt"
 viewBox="0.00 0.00 604.00 52.00" xmlns="http://www.w3.org/2000/svg" xmlns:xlink="http://www.w3.org/1999/xlink">
<g id="graph0" class="graph" transform="scale(1 1) rotate(0) translate(4 48)">
<title>D</title>
<polygon fill="#141d26" stroke="none" points="-4,4 -4,-48 600,-48 600,4 -4,4"/>
<!-- 0 -->
<g id="node1" class="node"><title>0</title>
<ellipse fill="#48d1cc" stroke="#48d1cc" cx="574" cy="-22" rx="18" ry="18"/>
<ellipse fill="none" stroke="#48d1cc" cx="574" cy="-22" rx="22" ry="22"/>
</g>
<!-- 1 -->
<g id="node3" class="node"><title>1</title>
<ellipse fill="#48d1cc" stroke="#48d1cc" cx="492" cy="-22" rx="18" ry="18"/>
</g>
<!-- 0&#45;&gt;1 -->
<g id="edge1" class="edge"><title>0&#45;&gt;1</title>
<path fill="none" stroke="#f5f5f5" stroke-width="1.5" d="M541.654,-22C530.913,-22 519.297,-22 510.11,-22"/>
<polygon fill="#f5f5f5" stroke="#f5f5f5" stroke-width="1.5" points="541.981,-25.5001 551.981,-22 541.981,-18.5001 541.981,-25.5001"/>
<text text-anchor="start" x="528" y="-25.4" font-family="Century Gothic" font-size="12.00" fill="Crimson">ε</text>
</g>
<!-- final -->
<g id="node2" class="node"><title>final</title>
<ellipse fill="#48d1cc" stroke="#48d1cc" cx="18" cy="-22" rx="18" ry="18"/>
<text text-anchor="middle" x="18" y="-18.9" font-family="Century Gothic" font-size="12.00">S0</text>
</g>
<!-- 2 -->
<g id="node4" class="node"><title>2</title>
<ellipse fill="#48d1cc" stroke="#48d1cc" cx="376" cy="-22" rx="18" ry="18"/>
</g>
<!-- 1&#45;&gt;2 -->
<g id="edge2" class="edge"><title>1&#45;&gt;2</title>
<path fill="none" stroke="#f5f5f5" stroke-width="1.5" d="M463.491,-22C441.877,-22 412.456,-22 394.104,-22"/>
<polygon fill="#f5f5f5" stroke="#f5f5f5" stroke-width="1.5" points="463.686,-25.5001 473.686,-22 463.686,-18.5001 463.686,-25.5001"/>
<text text-anchor="start" x="412" y="-25.4" font-family="Century Gothic" font-size="12.00" fill="Crimson">{digito}</text>
</g>
<!-- 2&#45;&gt;1 -->
<g id="edge4" class="edge"><title>2&#45;&gt;1</title>
<path fill="none" stroke="#f5f5f5" stroke-width="1.5" d="M400.897,-8.66232C404.523,-7.15284 408.293,-5.8527 412,-5 431.058,-0.616505 436.942,-0.616505 456,-5 462.978,-6.60508 470.178,-9.79557 476.22,-12.9834"/>
<polygon fill="#f5f5f5" stroke="#f5f5f5" stroke-width="1.5" points="399.317,-5.53789 391.78,-12.9834 402.315,-11.8635 399.317,-5.53789"/>
<text text-anchor="start" x="431" y="-8.4" font-family="Century Gothic" font-size="12.00" fill="Crimson">ε</text>
</g>
<!-- 3 -->
<g id="node5" class="node"><title>3</title>
<ellipse fill="#48d1cc" stroke="#48d1cc" cx="298" cy="-22" rx="18" ry="18"/>
</g>
<!-- 2&#45;&gt;3 -->
<g id="edge3" class="edge"><title>2&#45;&gt;3</title>
<path fill="none" stroke="#f5f5f5" stroke-width="1.5" d="M347.428,-22C336.982,-22 325.397,-22 316.177,-22"/>
<polygon fill="#f5f5f5" stroke="#f5f5f5" stroke-width="1.5" points="347.754,-25.5001 357.754,-22 347.754,-18.5001 347.754,-25.5001"/>
<text text-anchor="start" x="334" y="-25.4" font-family="Century Gothic" font-size="12.00" fill="Crimson">ε</text>
</g>
<!-- 4 -->
<g id="node6" class="node"><title>4</title>
<ellipse fill="#48d1cc" stroke="#48d1cc" cx="215" cy="-22" rx="18" ry="18"/>
</g>
<!-- 3&#45;&gt;4 -->
<g id="edge5" class="edge"><title>3&#45;&gt;4</title>
<path fill="none" stroke="#f5f5f5" stroke-width="1.5" d="M269.768,-22C257.663,-22 243.78,-22 233.153,-22"/>
<polygon fill="#f5f5f5" stroke="#f5f5f5" stroke-width="1.5" points="269.822,-25.5001 279.822,-22 269.822,-18.5001 269.822,-25.5001"/>
<text text-anchor="start" x="251" y="-25.4" font-family="Century Gothic" font-size="12.00" fill="Crimson">&quot;.&quot;</text>
</g>
<!-- 5 -->
<g id="node7" class="node"><title>5</title>
<ellipse fill="#48d1cc" stroke="#48d1cc" cx="96" cy="-22" rx="18" ry="18"/>
</g>
<!-- 4&#45;&gt;5 -->
<g id="edge6" class="edge"><title>4&#45;&gt;5</title>
<path fill="none" stroke="#f5f5f5" stroke-width="1.5" d="M186.747,-22C164.279,-22 133.105,-22 114.033,-22"/>
<polygon fill="#f5f5f5" stroke="#f5f5f5" stroke-width="1.5" points="186.987,-25.5001 196.987,-22 186.987,-18.5001 186.987,-25.5001"/>
<text text-anchor="start" x="132" y="-25.4" font-family="Century Gothic" font-size="12.00" fill="Crimson">{digito} </text>
</g>
<!-- 5&#45;&gt;final -->
<g id="edge7" class="edge"><title>5&#45;&gt;final</title>
<path fill="none" stroke="#f5f5f5" stroke-width="1.5" d="M67.4282,-22C56.9823,-22 45.3969,-22 36.1773,-22"/>
<polygon fill="#f5f5f5" stroke="#f5f5f5" stroke-width="1.5" points="67.7545,-25.5001 77.7544,-22 67.7544,-18.5001 67.7545,-25.5001"/>
<text text-anchor="start" x="54" y="-25.4" font-family="Century Gothic" font-size="12.00" fill="Crimson">ε</text>
</g>
</g>
</svg>
