<?xml version="1.0" encoding="UTF-8" standalone="no"?>
<!DOCTYPE svg PUBLIC "-//W3C//DTD SVG 1.1//EN"
 "http://www.w3.org/Graphics/SVG/1.1/DTD/svg11.dtd">
<!-- Generated by graphviz version 2.38.0 (20140413.2041)
 -->
<!-- Title: D Pages: 1 -->
<svg width="700pt" height="206pt"
 viewBox="0.00 0.00 700.00 206.28" xmlns="http://www.w3.org/2000/svg" xmlns:xlink="http://www.w3.org/1999/xlink">
<g id="graph0" class="graph" transform="scale(1 1) rotate(0) translate(4 202.276)">
<title>D</title>
<polygon fill="#141d26" stroke="none" points="-4,4 -4,-202.276 696,-202.276 696,4 -4,4"/>
<!-- 0 -->
<g id="node1" class="node"><title>0</title>
<ellipse fill="#48d1cc" stroke="#48d1cc" cx="670" cy="-89.2765" rx="18" ry="18"/>
<ellipse fill="none" stroke="#48d1cc" cx="670" cy="-89.2765" rx="22" ry="22"/>
</g>
<!-- 1 -->
<g id="node3" class="node"><title>1</title>
<ellipse fill="#48d1cc" stroke="#48d1cc" cx="588" cy="-89.2765" rx="18" ry="18"/>
</g>
<!-- 0&#45;&gt;1 -->
<g id="edge12" class="edge"><title>0&#45;&gt;1</title>
<path fill="none" stroke="#f5f5f5" stroke-width="1.5" d="M637.654,-89.2765C626.913,-89.2765 615.297,-89.2765 606.11,-89.2765"/>
<polygon fill="#f5f5f5" stroke="#f5f5f5" stroke-width="1.5" points="637.981,-92.7766 647.981,-89.2765 637.981,-85.7766 637.981,-92.7766"/>
<text text-anchor="start" x="624" y="-92.6765" font-family="Century Gothic" font-size="12.00" fill="Crimson">ε</text>
</g>
<!-- final -->
<g id="node2" class="node"><title>final</title>
<ellipse fill="#48d1cc" stroke="#48d1cc" cx="18" cy="-89.2765" rx="18" ry="18"/>
<text text-anchor="middle" x="18" y="-86.1765" font-family="Century Gothic" font-size="12.00">S0</text>
</g>
<!-- 2 -->
<g id="node4" class="node"><title>2</title>
<ellipse fill="#48d1cc" stroke="#48d1cc" cx="418" cy="-180.276" rx="18" ry="18"/>
</g>
<!-- 1&#45;&gt;2 -->
<g id="edge1" class="edge"><title>1&#45;&gt;2</title>
<path fill="none" stroke="#f5f5f5" stroke-width="1.5" d="M571.24,-112.526C565.777,-119.28 559.198,-126.197 552,-131.276 515.006,-157.382 462.483,-171.274 435.865,-177.024"/>
<polygon fill="#f5f5f5" stroke="#f5f5f5" stroke-width="1.5" points="574.289,-114.296 577.525,-104.208 568.704,-110.076 574.289,-114.296"/>
<text text-anchor="start" x="510" y="-157.676" font-family="Century Gothic" font-size="12.00" fill="Crimson">{letra} </text>
</g>
<!-- 3 -->
<g id="node5" class="node"><title>3</title>
<ellipse fill="#48d1cc" stroke="#48d1cc" cx="418" cy="-133.276" rx="18" ry="18"/>
</g>
<!-- 1&#45;&gt;3 -->
<g id="edge2" class="edge"><title>1&#45;&gt;3</title>
<path fill="none" stroke="#f5f5f5" stroke-width="1.5" d="M561.746,-99.9262C558.494,-101.135 555.187,-102.286 552,-103.276 511.085,-115.986 461.541,-125.72 436.022,-130.333"/>
<polygon fill="#f5f5f5" stroke="#f5f5f5" stroke-width="1.5" points="563.132,-103.142 571.162,-96.2302 560.575,-96.626 563.132,-103.142"/>
<text text-anchor="start" x="508" y="-117.676" font-family="Century Gothic" font-size="12.00" fill="Crimson">{digito}</text>
</g>
<!-- 4 -->
<g id="node6" class="node"><title>4</title>
<ellipse fill="#48d1cc" stroke="#48d1cc" cx="286" cy="-89.2765" rx="18" ry="18"/>
</g>
<!-- 1&#45;&gt;4 -->
<g id="edge9" class="edge"><title>1&#45;&gt;4</title>
<path fill="none" stroke="#f5f5f5" stroke-width="1.5" d="M559.557,-89.2765C498.688,-89.2765 353.825,-89.2765 304.1,-89.2765"/>
<polygon fill="#f5f5f5" stroke="#f5f5f5" stroke-width="1.5" points="559.574,-92.7766 569.574,-89.2765 559.574,-85.7766 559.574,-92.7766"/>
<text text-anchor="start" x="415" y="-92.6765" font-family="Century Gothic" font-size="12.00" fill="Crimson">ε</text>
</g>
<!-- 5 -->
<g id="node7" class="node"><title>5</title>
<ellipse fill="#48d1cc" stroke="#48d1cc" cx="472" cy="-43.2765" rx="18" ry="18"/>
</g>
<!-- 1&#45;&gt;5 -->
<g id="edge5" class="edge"><title>1&#45;&gt;5</title>
<path fill="none" stroke="#f5f5f5" stroke-width="1.5" d="M566.223,-70.9981C561.752,-67.7267 556.893,-64.6192 552,-62.2765 531.897,-52.6512 506.516,-47.6697 490.03,-45.2662"/>
<polygon fill="#f5f5f5" stroke="#f5f5f5" stroke-width="1.5" points="564.232,-73.8852 574.25,-77.3329 568.569,-68.3903 564.232,-73.8852"/>
<text text-anchor="start" x="527" y="-65.6765" font-family="Century Gothic" font-size="12.00" fill="Crimson">ε</text>
</g>
<!-- 2&#45;&gt;4 -->
<g id="edge3" class="edge"><title>2&#45;&gt;4</title>
<path fill="none" stroke="#f5f5f5" stroke-width="1.5" d="M392.53,-167.564C378.527,-159.944 360.848,-149.728 346,-139.276 329.092,-127.375 311.176,-111.698 299.583,-101.096"/>
<polygon fill="#f5f5f5" stroke="#f5f5f5" stroke-width="1.5" points="391.089,-170.762 401.557,-172.395 394.392,-164.59 391.089,-170.762"/>
<text text-anchor="start" x="361" y="-164.676" font-family="Century Gothic" font-size="12.00" fill="Crimson">ε</text>
</g>
<!-- 3&#45;&gt;4 -->
<g id="edge4" class="edge"><title>3&#45;&gt;4</title>
<path fill="none" stroke="#f5f5f5" stroke-width="1.5" d="M390.576,-125.51C371.417,-119.739 344.95,-111.477 322,-103.276 315.714,-101.03 308.881,-98.3514 302.934,-95.9414"/>
<polygon fill="#f5f5f5" stroke="#f5f5f5" stroke-width="1.5" points="389.816,-128.936 400.4,-128.444 391.819,-122.229 389.816,-128.936"/>
<text text-anchor="start" x="361" y="-125.676" font-family="Century Gothic" font-size="12.00" fill="Crimson">ε</text>
</g>
<!-- 4&#45;&gt;1 -->
<g id="edge10" class="edge"><title>4&#45;&gt;1</title>
<path fill="none" stroke="#f5f5f5" stroke-width="1.5" d="M299.489,-64.2783C309.495,-47.2895 325.28,-26.1713 346,-16.2765 403.752,11.3036 427.434,-2.8038 490,-16.2765 519.558,-22.6413 528.244,-25.5726 552,-44.2765 562.42,-52.4808 571.521,-64.4256 577.829,-73.9472"/>
<polygon fill="#f5f5f5" stroke="#f5f5f5" stroke-width="1.5" points="296.332,-62.7536 294.531,-73.1941 302.45,-66.156 296.332,-62.7536"/>
<text text-anchor="start" x="415" y="-7.67647" font-family="Century Gothic" font-size="12.00" fill="Crimson">ε</text>
</g>
<!-- 7 -->
<g id="node9" class="node"><title>7</title>
<ellipse fill="#48d1cc" stroke="#48d1cc" cx="208" cy="-89.2765" rx="18" ry="18"/>
</g>
<!-- 4&#45;&gt;7 -->
<g id="edge8" class="edge"><title>4&#45;&gt;7</title>
<path fill="none" stroke="#f5f5f5" stroke-width="1.5" d="M257.428,-89.2765C246.982,-89.2765 235.397,-89.2765 226.177,-89.2765"/>
<polygon fill="#f5f5f5" stroke="#f5f5f5" stroke-width="1.5" points="257.754,-92.7766 267.754,-89.2765 257.754,-85.7766 257.754,-92.7766"/>
<text text-anchor="start" x="244" y="-92.6765" font-family="Century Gothic" font-size="12.00" fill="Crimson">ε</text>
</g>
<!-- 6 -->
<g id="node8" class="node"><title>6</title>
<ellipse fill="#48d1cc" stroke="#48d1cc" cx="364" cy="-43.2765" rx="18" ry="18"/>
</g>
<!-- 5&#45;&gt;6 -->
<g id="edge6" class="edge"><title>5&#45;&gt;6</title>
<path fill="none" stroke="#f5f5f5" stroke-width="1.5" d="M443.931,-43.2765C424.554,-43.2765 399.042,-43.2765 382.341,-43.2765"/>
<polygon fill="#f5f5f5" stroke="#f5f5f5" stroke-width="1.5" points="443.969,-46.7766 453.969,-43.2765 443.969,-39.7766 443.969,-46.7766"/>
<text text-anchor="start" x="411" y="-46.6765" font-family="Century Gothic" font-size="12.00" fill="Crimson">&quot;_&quot;</text>
</g>
<!-- 6&#45;&gt;4 -->
<g id="edge7" class="edge"><title>6&#45;&gt;4</title>
<path fill="none" stroke="#f5f5f5" stroke-width="1.5" d="M337.768,-53.8899C332.445,-56.4252 326.946,-59.2744 322,-62.2765 314.39,-66.8955 306.49,-72.8722 300.126,-78.0278"/>
<polygon fill="#f5f5f5" stroke="#f5f5f5" stroke-width="1.5" points="339.341,-57.0195 347.001,-49.7002 336.449,-50.6451 339.341,-57.0195"/>
<text text-anchor="start" x="322" y="-65.6765" font-family="Century Gothic" font-size="12.00" fill="Crimson">ε</text>
</g>
<!-- 8 -->
<g id="node10" class="node"><title>8</title>
<ellipse fill="#48d1cc" stroke="#48d1cc" cx="96" cy="-89.2765" rx="18" ry="18"/>
</g>
<!-- 7&#45;&gt;8 -->
<g id="edge11" class="edge"><title>7&#45;&gt;8</title>
<path fill="none" stroke="#f5f5f5" stroke-width="1.5" d="M179.788,-89.2765C159.22,-89.2765 131.619,-89.2765 114.067,-89.2765"/>
<polygon fill="#f5f5f5" stroke="#f5f5f5" stroke-width="1.5" points="179.813,-92.7766 189.813,-89.2765 179.812,-85.7766 179.813,-92.7766"/>
<text text-anchor="start" x="132" y="-92.6765" font-family="Century Gothic" font-size="12.00" fill="Crimson">{letra} </text>
</g>
<!-- 8&#45;&gt;final -->
<g id="edge13" class="edge"><title>8&#45;&gt;final</title>
<path fill="none" stroke="#f5f5f5" stroke-width="1.5" d="M67.4282,-89.2765C56.9823,-89.2765 45.3969,-89.2765 36.1773,-89.2765"/>
<polygon fill="#f5f5f5" stroke="#f5f5f5" stroke-width="1.5" points="67.7545,-92.7766 77.7544,-89.2765 67.7544,-85.7766 67.7545,-92.7766"/>
<text text-anchor="start" x="54" y="-92.6765" font-family="Century Gothic" font-size="12.00" fill="Crimson">ε</text>
</g>
</g>
</svg>
